<svg width="621" height="469" viewBox="0 0 621 469" fill="none" xmlns="http://www.w3.org/2000/svg">
<g clip-path="url(#clip0_28033_9563)">
<path d="M36.7044 395.636L17.6658 378.441C19.8431 364.656 25.1404 351.646 33.0979 340.542C33.7377 365.384 57.5969 382.021 65.8073 405.277C68.3159 412.551 69.2586 420.334 68.5656 428.05C67.8725 435.766 65.5615 443.216 61.8036 449.849L59.8883 468.617C49.4909 462.834 40.3917 454.715 33.2176 444.818C26.0436 434.921 20.9652 423.482 18.3325 411.289C16.919 404.433 16.3201 397.414 16.5499 390.398C26.2979 393.564 36.7044 395.636 36.7044 395.636Z" fill="#FFBB95"/>
<path d="M570.387 428.525L583.682 406.004C596.776 406.38 609.586 410.162 621 417.021C598.04 421.166 585.936 448.703 565.506 460.627C559.107 464.294 552.017 466.377 544.761 466.722C537.506 467.067 530.27 465.665 523.591 462.62L505.911 463.217C509.824 451.422 516.087 440.672 524.268 431.709C532.448 422.745 542.353 415.781 553.298 411.296C559.462 408.845 565.89 407.232 572.432 406.495C570.856 417.239 570.387 428.525 570.387 428.525Z" fill="#FFBB95"/>
<path d="M149.552 355.11L75.8344 350.494L85.9394 274.233L150.9 348.954L149.552 355.11Z" fill="#50433F"/>
<path d="M140.169 432.912L65.1036 427.52L75.1126 358.198L140.508 427.532L140.169 432.912Z" fill="#50433F"/>
<path d="M559.513 111.213V40.7703C559.513 35.4163 558.525 30.1147 556.605 25.1682C554.685 20.2217 551.871 15.7272 548.324 11.9413C544.777 8.15547 540.565 5.15235 535.931 3.10345C531.296 1.05454 526.328 -1.52588e-05 521.311 -1.52588e-05H381.471C376.455 -1.62704e-05 371.487 1.05454 366.852 3.10345C362.217 5.15235 358.006 8.15547 354.459 11.9413C350.911 15.7272 348.097 20.2217 346.177 25.1682C344.258 30.1147 343.27 35.4163 343.27 40.7704V427.225C343.27 438.038 347.294 448.408 354.459 456.054C361.623 463.7 371.34 467.996 381.471 467.996H521.311C531.443 467.996 541.16 463.7 548.324 456.054C555.488 448.408 559.513 438.038 559.513 427.225V161.356C560.152 161.356 560.765 161.085 561.217 160.602C561.669 160.12 561.922 159.466 561.922 158.784V113.785C561.922 113.103 561.669 112.449 561.217 111.966C560.765 111.484 560.152 111.213 559.513 111.213V111.213Z" fill="#3F3D56"/>
<path d="M551.383 41.0502V426.947C551.384 434.963 548.421 442.655 543.139 448.353C537.856 454.05 530.68 457.293 523.17 457.377C523.066 457.388 522.962 457.393 522.857 457.391H382.337C374.771 457.39 367.516 454.182 362.167 448.473C356.817 442.764 353.812 435.021 353.811 426.947V41.0502C353.812 32.9763 356.817 25.2333 362.167 19.5241C367.516 13.815 374.771 10.6073 382.337 10.6066H399.39C398.551 12.8037 398.232 15.1871 398.459 17.5469C398.687 19.9067 399.454 22.1708 400.694 24.1398C401.934 26.1088 403.608 27.7224 405.569 28.8387C407.531 29.955 409.719 30.5397 411.942 30.5414H492.055C494.276 30.5348 496.462 29.9468 498.42 28.8289C500.378 27.711 502.05 26.0973 503.288 24.1294C504.526 22.1615 505.292 19.8995 505.52 17.5418C505.748 15.1841 505.43 12.8027 504.595 10.6066H522.857C530.423 10.6073 537.678 13.815 543.027 19.5241C548.377 25.2332 551.382 32.9763 551.383 41.0502Z" fill="white"/>
<path d="M520.445 447.97C520.445 451.968 520.327 455.933 520.092 459.864C519.989 459.877 519.885 459.882 519.781 459.879H379.264C372.906 459.879 366.731 457.613 361.717 453.44C356.704 449.268 353.14 443.428 351.591 436.847C351.319 435.698 351.114 434.533 350.977 433.357C350.817 432.057 350.738 430.748 350.739 429.437V257.463C361.551 258.034 372.292 259.653 382.83 262.301C383.862 262.555 384.887 262.825 385.904 263.102C385.969 263.117 386.034 263.14 386.099 263.156C387.131 263.433 388.156 263.726 389.174 264.026C410.897 270.394 431.288 281.109 449.263 295.602C450.295 296.426 451.32 297.273 452.338 298.128L452.532 298.29C454.236 299.723 455.913 301.192 457.563 302.696C457.931 303.027 458.299 303.366 458.66 303.713C459.548 304.53 460.436 305.361 461.302 306.201C480.469 324.614 495.685 347.227 505.908 372.495C506.248 373.319 506.572 374.151 506.897 374.983C507.027 375.322 507.157 375.661 507.287 376C507.41 376.308 507.525 376.616 507.641 376.924C516.126 399.514 520.473 423.632 520.445 447.97V447.97Z" fill="#3F3D56"/>
<path d="M344.042 150.622C343.18 150.621 342.354 150.255 341.744 149.604C341.134 148.953 340.791 148.071 340.79 147.151V123.551C340.79 122.631 341.133 121.748 341.743 121.097C342.353 120.447 343.18 120.081 344.042 120.081C344.905 120.081 345.732 120.447 346.342 121.097C346.952 121.748 347.294 122.631 347.294 123.551V147.151C347.293 148.071 346.95 148.953 346.341 149.604C345.731 150.255 344.904 150.621 344.042 150.622V150.622Z" fill="#3F3D56"/>
<path d="M343.392 104.81C342.53 104.809 341.703 104.443 341.094 103.793C340.484 103.142 340.141 102.26 340.14 101.34V77.7402C340.14 76.8198 340.483 75.937 341.093 75.2862C341.702 74.6353 342.53 74.2697 343.392 74.2697C344.254 74.2697 345.082 74.6353 345.691 75.2862C346.301 75.937 346.644 76.8198 346.644 77.7402V101.34C346.643 102.26 346.3 103.142 345.69 103.793C345.081 104.443 344.254 104.809 343.392 104.81V104.81Z" fill="#3F3D56"/>
<path d="M429.892 14.5763C429.893 13.6562 430.236 12.7741 430.846 12.1234C431.456 11.4728 432.282 11.1068 433.144 11.1057H455.257C455.685 11.1051 456.108 11.1943 456.503 11.3684C456.898 11.5425 457.257 11.7981 457.56 12.1204C457.862 12.4428 458.102 12.8256 458.266 13.247C458.43 13.6684 458.514 14.1201 458.514 14.5763C458.514 15.0325 458.43 15.4842 458.266 15.9056C458.102 16.327 457.862 16.7098 457.56 17.0322C457.257 17.3545 456.898 17.61 456.503 17.7841C456.108 17.9583 455.685 18.0475 455.257 18.0468H433.144C432.282 18.0458 431.456 17.6798 430.846 17.0291C430.236 16.3785 429.893 15.4964 429.892 14.5763V14.5763Z" fill="white"/>
<path d="M344.042 190.88C343.18 190.879 342.354 190.513 341.744 189.862C341.134 189.212 340.791 188.33 340.79 187.409V163.81C340.79 162.889 341.133 162.007 341.743 161.356C342.353 160.705 343.18 160.339 344.042 160.339C344.905 160.339 345.732 160.705 346.342 161.356C346.952 162.007 347.294 162.889 347.294 163.81V187.409C347.293 188.33 346.95 189.212 346.341 189.862C345.731 190.513 344.904 190.879 344.042 190.88V190.88Z" fill="#3F3D56"/>
<path d="M467.614 18.0468C469.41 18.0468 470.866 16.493 470.866 14.5763C470.866 12.6596 469.41 11.1058 467.614 11.1058C465.818 11.1058 464.362 12.6596 464.362 14.5763C464.362 16.493 465.818 18.0468 467.614 18.0468Z" fill="white"/>
<path opacity="0.2" d="M455.607 430.869C455.606 423.663 456.936 416.528 459.519 409.87C462.102 403.213 465.889 397.164 470.664 392.068C475.438 386.973 481.106 382.931 487.344 380.174C493.582 377.417 500.268 375.999 507.02 376H507.287C507.157 375.661 507.027 375.322 506.897 374.983C506.572 374.151 506.248 373.319 505.908 372.495H455.607V303.713H458.66C458.3 303.366 457.931 303.027 457.563 302.696C455.91 301.194 454.233 299.725 452.532 298.29L452.338 298.128V300.208H389.174V264.026C388.156 263.726 387.131 263.433 386.099 263.156C386.034 263.14 385.969 263.117 385.904 263.102V300.208H353.814V303.713H385.904V372.495H353.814V376H385.904V430.869H354.052C354.189 432.045 354.394 433.21 354.666 434.359H385.904V457.391H389.174V434.359H452.338V457.391H455.607V434.359H510.716V430.869H455.607ZM452.338 430.869H389.174V376H452.338V430.869ZM452.338 372.495H389.174V371.123C389.174 353.245 395.829 336.099 407.674 323.457C419.52 310.815 435.586 303.713 452.338 303.713V372.495Z" fill="black"/>
<path d="M172.256 179.322L137.199 467.128L136.975 468.962H135.517L135.741 467.128L170.827 179.122L172.256 179.322Z" fill="#494646"/>
<path d="M99.2693 179.684L60.6105 467.159L60.3651 468.992H58.9071L59.1525 467.159L97.8402 179.469L99.2693 179.684Z" fill="#494646"/>
<path d="M226.766 468.923L225.264 468.931L224.802 467.097L150.018 170.641L151.411 170.24L226.296 467.097L226.766 468.923Z" fill="#3F3D56"/>
<path d="M223.598 170.229L222.21 170.649L301.018 467.338L302.407 466.917L223.598 170.229Z" fill="#3F3D56"/>
<path d="M287.364 412.905L215.902 428.683L216.195 430.192L287.656 414.414L287.364 412.905Z" fill="#3F3D56"/>
<path d="M274.974 366.624L203.512 382.402L203.805 383.911L275.266 368.133L274.974 366.624Z" fill="#3F3D56"/>
<path d="M262.593 320.342L191.63 334.999L191.904 336.511L262.867 321.854L262.593 320.342Z" fill="#3F3D56"/>
<path d="M250.202 274.071L180.785 288.711L181.065 290.222L250.482 275.582L250.202 274.071Z" fill="#3F3D56"/>
<path d="M98.0489 179.631C96.9634 172.063 98.7394 164.344 102.986 158.173C107.233 152.003 113.603 147.885 120.694 146.726C127.786 145.568 135.018 147.463 140.8 151.996C146.582 156.528 150.44 163.326 151.526 170.895L150.099 171.128C149.592 167.579 148.434 164.171 146.693 161.1C144.951 158.029 142.66 155.354 139.949 153.228C137.239 151.102 134.162 149.567 130.895 148.71C127.629 147.854 124.236 147.692 120.911 148.235C117.586 148.779 114.394 150.016 111.517 151.876C108.64 153.736 106.134 156.183 104.144 159.077C102.153 161.971 100.716 165.255 99.9154 168.742C99.1144 172.228 98.965 175.849 99.4756 179.398L98.0489 179.631Z" fill="#3F3D56"/>
<path d="M170.344 179.976C169.759 176.235 169.87 172.409 170.672 168.715C171.473 165.02 172.948 161.531 175.013 158.445C177.078 155.36 179.693 152.738 182.707 150.731C185.722 148.724 189.077 147.371 192.582 146.748C196.087 146.125 199.672 146.245 203.133 147.101C206.594 147.958 209.864 149.533 212.754 151.738C215.645 153.943 218.1 156.734 219.98 159.952C221.859 163.17 223.127 166.751 223.709 170.492L222.285 170.745C221.167 163.598 217.435 157.218 211.91 153.007C206.385 148.797 199.519 147.1 192.822 148.29C186.125 149.48 180.145 153.46 176.197 159.354C172.249 165.249 170.656 172.575 171.768 179.723L170.344 179.976Z" fill="#3F3D56"/>
<path d="M244.93 242.843L231.058 278.859L276.255 278.509L271.659 242.762L244.93 242.843Z" fill="#FFB6B6"/>
<path d="M255.967 408.179L262.671 409.223L269.632 382.123L259.737 380.583L255.967 408.179Z" fill="#FFB6B6"/>
<path d="M254.787 404.391L265.476 405.366L264.814 410.211L273.874 419.206C274.322 419.65 274.624 420.236 274.738 420.877C274.852 421.517 274.771 422.18 274.507 422.768C274.242 423.357 273.809 423.839 273.27 424.146C272.73 424.452 272.113 424.567 271.508 424.473L258.892 422.509L257.372 417.377L255.868 422.038L251.111 421.297L254.787 404.391Z" fill="#2F2E41"/>
<path d="M178.492 388.164L183.84 392.602L202.426 372.698L194.533 366.148L178.492 388.164Z" fill="#FFB6B6"/>
<path d="M179.217 384.247L188.064 390.725L185.247 394.591L188.968 407.186C189.152 407.808 189.145 408.477 188.947 409.094C188.75 409.711 188.373 410.245 187.871 410.618C187.369 410.99 186.769 411.181 186.158 411.164C185.547 411.147 184.957 410.921 184.475 410.521L174.41 402.167L175.461 396.904L171.998 400.165L168.203 397.016L179.217 384.247Z" fill="#2F2E41"/>
<path d="M233.61 270.313L229.159 276.606L217.31 331.621L190.38 370.439L199.433 379.716L233.782 344.151L250.639 306.152L259.168 341.251L257.003 388.24L271.438 387.47C275.351 332.938 281.471 276.83 274.262 261.073C269.511 265.496 263.963 268.839 257.96 270.896C251.956 272.953 245.623 273.681 239.346 273.036L233.61 270.313Z" fill="#2F2E41"/>
<path d="M257.437 184.599L268.826 197.89C271.325 200.807 272.909 204.483 273.358 208.407V208.407C273.562 210.188 273.528 211.992 273.257 213.763L270.802 232.959L275.133 262.231C275.133 262.231 268.96 266.249 257.088 274.557C252.242 277.947 229.632 277.892 229.66 276.867C229.788 272.121 233.767 259.328 234.713 243.744C235.88 224.508 234.349 201.55 238.321 190.592C243.171 177.215 257.437 184.599 257.437 184.599Z" fill="#FF7144"/>
<path d="M218.355 269.766C218.852 268.995 219.185 268.117 219.329 267.193C219.474 266.27 219.427 265.324 219.192 264.422C218.956 263.52 218.539 262.684 217.968 261.973C217.398 261.262 216.688 260.693 215.889 260.307L216.334 245.682L208.073 243.225L207.716 263.888C207.196 265.363 207.201 266.991 207.731 268.462C208.261 269.933 209.278 271.146 210.589 271.871C211.901 272.595 213.416 272.781 214.847 272.393C216.278 272.006 217.527 271.071 218.355 269.766V269.766Z" fill="#FFB6B6"/>
<path d="M207.335 210.727C207.579 210.046 207.953 209.426 208.433 208.906C208.913 208.387 209.489 207.98 210.124 207.71C214.521 205.739 233.532 189.159 234.232 189.471L240.267 186.292C240.49 186.294 246.435 186.444 249.352 189.974C249.958 190.719 250.406 191.595 250.665 192.543C250.924 193.49 250.988 194.486 250.852 195.463C249.998 203.868 223.048 222.749 220.191 222.622L217.166 246.488L218.343 255.605L207.322 255.939L203.926 242.515C203.438 241.536 202.823 222.991 207.335 210.727Z" fill="#FF7144"/>
<path d="M251.521 197.979C252.413 191.454 248.979 185.517 243.851 184.719C238.723 183.92 233.843 188.563 232.951 195.088C232.059 201.613 235.493 207.55 240.621 208.348C245.749 209.147 250.629 204.504 251.521 197.979Z" fill="#FF7144"/>
<path d="M168.675 240.642L168.396 239.13L235.434 222.945V224.486L168.675 240.642Z" fill="#3F3D56"/>
<path d="M465.453 131.778H439.742C434.195 131.778 429.699 136.577 429.699 142.496V142.496C429.699 148.415 434.195 153.213 439.742 153.213H465.453C470.999 153.213 475.495 148.415 475.495 142.496C475.495 136.577 470.999 131.778 465.453 131.778Z" fill="#E6E6E6"/>
<path d="M513.153 174.648H392.041C386.495 174.648 381.999 179.446 381.999 185.365V185.365C381.999 191.284 386.495 196.083 392.041 196.083H513.153C518.699 196.083 523.195 191.284 523.195 185.365C523.195 179.446 518.699 174.648 513.153 174.648Z" fill="#E6E6E6"/>
<path d="M461.185 206.733H340.072C334.526 206.733 330.03 211.532 330.03 217.451V217.451C330.03 223.37 334.526 228.168 340.072 228.168H461.185C466.731 228.168 471.227 223.37 471.227 217.451C471.227 211.532 466.731 206.733 461.185 206.733Z" fill="#FF7144" id="bubble"/>
<path d="M269.488 171.327C267.333 174.382 264.268 176.562 260.797 177.509C257.326 178.457 253.656 178.114 250.392 176.538C247.128 174.962 244.464 172.246 242.839 168.839C241.214 165.431 240.725 161.534 241.453 157.791C242.18 154.047 244.08 150.679 246.841 148.241C249.601 145.804 253.057 144.443 256.639 144.382C260.221 144.32 263.716 145.563 266.548 147.905C269.38 150.247 271.381 153.548 272.22 157.265C272.265 157.467 272.304 157.667 272.341 157.876C272.784 160.205 272.759 162.609 272.267 164.928C271.775 167.247 270.828 169.428 269.488 171.327V171.327Z" fill="#FFB6B6"/>
<path d="M273.591 158.07C273.193 155.961 273.343 157.051 272.938 154.948C273.022 155.966 272.813 156.987 272.341 157.876L253.764 154.983L255.339 143.458C261.096 142.003 266.685 140.873 269.316 145.634C272.18 146.08 274.761 147.722 276.491 150.199C278.221 152.676 278.958 155.784 278.54 158.841L273.591 158.07Z" fill="#591A12"/>
<path d="M262.626 189.082C262.641 188.867 262.65 188.642 262.651 188.424C262.615 186.82 262.42 185.224 262.069 183.663C261.753 181.971 261.431 180.271 261.108 178.578C261.408 181.606 260.773 184.656 259.301 187.264C256.521 184.169 258.359 179.689 254.259 179.051C244.403 177.517 236.383 166.235 237.821 155.709C239.259 145.19 244.563 137.981 254.419 139.516C264.282 141.052 271.623 147.114 270.378 157.663C257.82 158.822 265.065 188.372 262.626 189.082Z" fill="#591A12"/>
<path d="M240.94 149.118C244.576 149.118 247.524 145.972 247.524 142.092C247.524 138.212 244.576 135.066 240.94 135.066C237.305 135.066 234.357 138.212 234.357 142.092C234.357 145.972 237.305 149.118 240.94 149.118Z" fill="#591A12"/>
<path d="M248.749 136.291C248.135 134.873 247.203 133.639 246.036 132.697C244.868 131.756 243.501 131.136 242.055 130.893C243.073 131.384 243.963 132.136 244.645 133.081C245.327 134.025 245.781 135.135 245.967 136.311C246.153 137.487 246.065 138.694 245.711 139.826C245.356 140.957 244.747 141.978 243.936 142.799L245.267 141.578C245.63 141.908 246.082 142.105 246.557 142.141C247.033 142.178 247.507 142.051 247.91 141.779C248.305 141.495 248.635 141.119 248.874 140.68C249.114 140.24 249.257 139.748 249.293 139.241C249.356 138.224 249.169 137.207 248.749 136.291V136.291Z" fill="#2F2E41"/>
<path d="M332.552 210.603C331.769 210.18 330.909 209.945 330.033 209.915C329.156 209.885 328.284 210.061 327.478 210.43C326.671 210.798 325.951 211.351 325.366 212.049C324.782 212.747 324.348 213.574 324.095 214.47L310.454 215.945L309.272 225.011L328.509 222.639C329.948 222.993 331.458 222.77 332.754 222.014C334.05 221.258 335.041 220.021 335.54 218.538C336.038 217.054 336.009 215.427 335.458 213.964C334.908 212.502 333.874 211.306 332.552 210.603Z" fill="#FFB6B6"/>
<path d="M279.19 230.114C278.525 229.947 277.9 229.634 277.353 229.195C276.807 228.757 276.352 228.202 276.018 227.566C273.602 223.177 255.676 205.274 255.872 204.492L252.117 198.531C252.089 198.295 251.438 191.987 254.327 188.432C254.939 187.692 255.693 187.101 256.538 186.701C257.384 186.301 258.3 186.102 259.225 186.115C267.145 185.9 287.056 212.651 287.317 215.689L311.092 214.958L319.403 212.5L321.179 224.113L309.164 229.492C308.32 230.138 291.18 233.256 279.19 230.114Z" fill="#FF7144"/>
</g>
<defs>
<clipPath id="clip0_28033_9563">
<rect width="621" height="469" fill="white"/>
</clipPath>
</defs>
</svg>
